SplineFontDB: 3.2
FontName: BS3693B1964
FullName: BS 3693B 1964
FamilyName: BS 3693B 1964
Weight: Regular
Copyright: Copyright (c) 2023, Aaron Axttraeger
UComments: "2023-7-7: Created with FontForge (http://fontforge.org)"
Version: 0.1.0
DefaultBaseFilename: BS_3693B_1964
ItalicAngle: 0
UnderlinePosition: -100
UnderlineWidth: 50
Ascent: 819
Descent: 205
InvalidEm: 0
LayerCount: 2
Layer: 0 0 "Back" 1
Layer: 1 0 "Fore" 0
XUID: [1021 89 2023930680 12807]
StyleMap: 0x0040
FSType: 0
OS2Version: 0
OS2_WeightWidthSlopeOnly: 0
OS2_UseTypoMetrics: 1
CreationTime: 1688706552
ModificationTime: 1722092608
PfmFamily: 33
TTFWeight: 500
TTFWidth: 5
LineGap: 90
VLineGap: 0
Panose: 2 11 6 9 2 2 0 0 0 0
OS2TypoAscent: 30
OS2TypoAOffset: 1
OS2TypoDescent: 30
OS2TypoDOffset: 1
OS2TypoLinegap: 90
OS2WinAscent: 0
OS2WinAOffset: 1
OS2WinDescent: 0
OS2WinDOffset: 1
HheadAscent: 0
HheadAOffset: 1
HheadDescent: 0
HheadDOffset: 1
OS2CapHeight: 800
OS2XHeight: 550
OS2FamilyClass: 2050
OS2Vendor: 'PfEd'
OS2CodePages: 00000001.00000000
OS2UnicodeRanges: 00000001.00000000.00000000.00000000
Lookup: 1 0 0 "tnum" { "tnum" ("tabular") } ['tnum' ('DFLT' <'dflt' > ) ]
MarkAttachClasses: 1
DEI: 91125

StartChar: zero
Encoding: 48 48 0
Width: 630
VWidth: 1000
Flags: HW
LayerCount: 2
Fore
SplineSet
550.678710938 611.166015625 m 4
 569.916015625 542.766601562 580.208984375 470.645507812 580.208984375 396.150390625 c 4
 580.208984375 364.087890625 578.30859375 332.420898438 574.587890625 301.387695312 c 4
 571.81640625 254.758789062 562.474609375 209.870117188 547.275390625 167.754882812 c 4
 547.196289062 167.516601562 547.116210938 167.200195312 547.037109375 166.8828125 c 4
 544.900390625 159.599609375 542.4453125 152.396484375 539.674804688 145.349609375 c 4
 539.674804688 145.296875 539.649414062 145.244140625 539.595703125 145.19140625 c 4
 534.845703125 133.158203125 529.146484375 121.599609375 522.575195312 110.595703125 c 6
 522.49609375 110.516601562 l 6
 489.325195312 54.7041015625 434.224609375 13.4580078125 369.150390625 -1.50390625 c 4
 358.857421875 -3.87890625 348.25 -5.541015625 337.5625 -6.4912109375 c 4
 330.120117188 -7.2822265625 322.599609375 -7.599609375 315 -7.599609375 c 4
 307.400390625 -7.599609375 299.879882812 -7.2822265625 292.4375 -6.4912109375 c 4
 281.75 -5.541015625 271.142578125 -3.87890625 260.849609375 -1.50390625 c 4
 195.775390625 13.4580078125 140.674804688 54.7041015625 107.50390625 110.516601562 c 6
 107.424804688 110.595703125 l 6
 100.853515625 121.599609375 95.154296875 133.158203125 90.404296875 145.19140625 c 4
 90.3505859375 145.244140625 90.3251953125 145.296875 90.3251953125 145.349609375 c 4
 87.5546875 152.396484375 85.099609375 159.599609375 82.962890625 166.8828125 c 4
 82.8837890625 167.200195312 82.8037109375 167.516601562 82.724609375 167.754882812 c 4
 67.525390625 209.870117188 58.18359375 254.758789062 55.412109375 301.387695312 c 4
 51.69140625 332.420898438 49.791015625 364.087890625 49.791015625 396.150390625 c 4
 49.791015625 470.645507812 60.083984375 542.766601562 79.3212890625 611.166015625 c 4
 82.091796875 623.4375 85.732421875 635.391601562 90.3251953125 646.950195312 c 4
 90.3251953125 647.002929688 90.3505859375 647.055664062 90.404296875 647.108398438 c 4
 98.0830078125 666.583007812 108.295898438 684.870117188 120.56640625 701.49609375 c 4
 150.80859375 742.662109375 193.795898438 773.775390625 243.670898438 789.212890625 c 4
 259.344726562 794.041015625 275.654296875 797.287109375 292.4375 798.791015625 c 4
 299.879882812 799.583984375 307.400390625 799.900390625 315 799.900390625 c 4
 322.599609375 799.900390625 330.120117188 799.583984375 337.5625 798.791015625 c 4
 354.344726562 797.287109375 370.654296875 794.041015625 386.329101562 789.212890625 c 4
 436.204101562 773.775390625 479.19140625 742.662109375 509.43359375 701.49609375 c 4
 521.704101562 684.870117188 531.916992188 666.583007812 539.595703125 647.108398438 c 4
 539.649414062 647.055664062 539.674804688 647.002929688 539.674804688 646.950195312 c 4
 543.633789062 635.154296875 547.275390625 623.200195312 550.678710938 611.166015625 c 4
468.900390625 372.478515625 m 4
 469.216796875 380.31640625 469.375 388.233398438 469.375 396.150390625 c 4
 469.375 404.06640625 469.216796875 411.983398438 468.900390625 419.821289062 c 4
 467 476.741210938 458.133789062 531.841796875 443.012695312 584.408203125 c 4
 443.012695312 584.56640625 442.932617188 584.646484375 442.932617188 584.803710938 c 4
 440.55859375 593.037109375 438.025390625 601.192382812 435.333984375 609.266601562 c 4
 435.333984375 609.345703125 435.333984375 609.424804688 435.25390625 609.50390625 c 4
 424.645507812 634.362304688 406.595703125 655.341796875 383.875 669.43359375 c 4
 363.845703125 681.862304688 340.25390625 689.06640625 315 689.06640625 c 4
 289.74609375 689.06640625 266.154296875 681.862304688 246.125 669.43359375 c 4
 223.404296875 655.341796875 205.354492188 634.362304688 194.74609375 609.50390625 c 4
 194.666015625 609.424804688 194.666015625 609.345703125 194.666015625 609.266601562 c 4
 191.974609375 601.192382812 189.44140625 593.037109375 187.067382812 584.803710938 c 4
 187.067382812 584.646484375 186.987304688 584.56640625 186.987304688 584.408203125 c 4
 171.866210938 531.841796875 163 476.741210938 161.099609375 419.821289062 c 4
 160.783203125 411.983398438 160.625 404.06640625 160.625 396.150390625 c 4
 160.625 388.233398438 160.783203125 380.31640625 161.099609375 372.478515625 c 4
 161.733398438 351.895507812 163.317382812 331.62890625 165.849609375 311.599609375 c 6
 165.849609375 311.283203125 l 6
 170.282226562 275.896484375 177.329101562 241.37890625 186.987304688 207.891601562 c 4
 186.987304688 207.733398438 187.067382812 207.654296875 187.067382812 207.49609375 c 4
 188.333984375 203.220703125 189.599609375 199.025390625 190.866210938 194.829101562 c 4
 194.904296875 184.458984375 199.416992188 174.325195312 204.404296875 164.428710938 c 4
 204.404296875 164.349609375 204.482421875 164.19140625 204.5625 164.112304688 c 4
 227.678710938 127.537109375 268.529296875 103.233398438 315 103.233398438 c 4
 361.470703125 103.233398438 402.321289062 127.537109375 425.4375 164.112304688 c 4
 425.517578125 164.19140625 425.594726562 164.349609375 425.594726562 164.428710938 c 4
 430.583007812 174.325195312 435.095703125 184.458984375 439.133789062 194.829101562 c 4
 440.400390625 199.025390625 441.666015625 203.220703125 442.932617188 207.49609375 c 4
 442.932617188 207.654296875 443.012695312 207.733398438 443.012695312 207.891601562 c 4
 452.670898438 241.37890625 459.716796875 275.896484375 464.150390625 311.283203125 c 6
 464.150390625 311.599609375 l 6
 466.682617188 331.62890625 468.266601562 351.895507812 468.900390625 372.478515625 c 4
EndSplineSet
Substitution2: "tnum" zero.tabular
EndChar

StartChar: one
Encoding: 49 49 1
Width: 210
VWidth: 1000
Flags: HW
LayerCount: 2
Fore
SplineSet
160.416992188 0.31640625 m 5
 49.5830078125 0.31640625 l 5
 49.5830078125 788.025390625 l 5
 160.416992188 788.025390625 l 5
 160.416992188 0.31640625 l 5
EndSplineSet
Substitution2: "tnum" one.tabular
EndChar

StartChar: two
Encoding: 50 50 2
Width: 565
VWidth: 1000
Flags: HW
LayerCount: 2
Fore
SplineSet
209.905273438 166.8046875 m 4
 197.633789062 149.466796875 187.104492188 130.862304688 178.5546875 111.150390625 c 5
 487.3046875 111.150390625 l 5
 487.3046875 0.31640625 l 5
 51.8876953125 0.31640625 l 5
 51.8876953125 16.94140625 l 6
 51.8876953125 97.216796875 77.2998046875 171.553710938 120.525390625 232.353515625 c 4
 121.712890625 234.095703125 122.978515625 235.758789062 124.24609375 237.5 c 4
 127.017578125 241.141601562 129.866210938 244.783203125 132.637695312 248.424804688 c 4
 134.221679688 250.404296875 135.803710938 252.383789062 137.387695312 254.283203125 c 6
 137.625 254.599609375 l 6
 161.612304688 284.366210938 188.291015625 311.837890625 217.267578125 336.616210938 c 6
 325.803710938 428.6875 l 6
 336.096679688 437.474609375 345.913085938 446.658203125 355.333984375 456.079101562 c 4
 358.896484375 459.641601562 362.458984375 463.282226562 365.94140625 467.00390625 c 4
 368.950195312 470.169921875 371.799804688 473.416015625 374.729492188 476.662109375 c 4
 383.913085938 487.982421875 390.879882812 500.571289062 395.471679688 513.712890625 c 4
 400.142578125 526.93359375 402.438476562 540.708984375 402.516601562 554.5625 c 4
 402.674804688 586.387695312 390.563476562 618.291015625 366.258789062 642.595703125 c 4
 341.955078125 666.900390625 310.129882812 679.012695312 278.303710938 678.932617188 c 4
 260.571289062 678.932617188 242.916992188 675.133789062 226.530273438 667.612304688 c 4
 224.233398438 666.583007812 221.9375 665.396484375 219.642578125 664.208984375 c 4
 189.795898438 648.533203125 163.038085938 626.049804688 141.900390625 597.075195312 c 4
 138.971679688 593.116210938 136.200195312 589 133.666992188 584.883789062 c 5
 49.9873046875 657.55859375 l 5
 85.375 704.345703125 130.18359375 740.68359375 180.137695312 766.016601562 c 4
 183.9375 767.916992188 187.81640625 769.81640625 191.6171875 771.478515625 c 4
 219.087890625 783.591796875 248.616210938 789.766601562 278.303710938 789.766601562 c 4
 338.946289062 789.924804688 399.587890625 766.887695312 445.821289062 720.970703125 c 4
 492.133789062 675.053710938 515.170898438 614.80859375 515.012695312 554.641601562 c 5
 514.93359375 554.641601562 l 5
 514.853515625 502.470703125 497.200195312 450.220703125 462.049804688 407.470703125 c 4
 456.428710938 401.375 451.045898438 395.200195312 445.267578125 389.262695312 c 4
 438.616210938 382.216796875 431.887695312 375.329101562 425 368.521484375 c 4
 417.2421875 360.762695312 386.920898438 335.19140625 378.450195312 327.987304688 c 6
 289.30859375 252.462890625 l 6
 265.478515625 232.037109375 243.62890625 209.474609375 223.916015625 185.091796875 c 6
 223.758789062 184.775390625 l 6
 222.413085938 183.271484375 221.146484375 181.608398438 219.87890625 180.025390625 c 4
 217.583984375 177.016601562 215.208984375 174.008789062 212.913085938 171 c 4
 211.883789062 169.575195312 210.854492188 168.229492188 209.905273438 166.8046875 c 4
EndSplineSet
Substitution2: "tnum" two.tabular
EndChar

StartChar: three
Encoding: 51 51 3
Width: 611
VWidth: 1000
Flags: HW
LayerCount: 2
Fore
SplineSet
561.345703125 260.93359375 m 0
 561.345703125 247.4765625 560.373046875 234.26171875 558.427734375 221.373046875 c 0
 539.294921875 90.1259765625 426.290039062 -10.640625 289.7734375 -10.640625 c 0
 275.181640625 -10.640625 260.833007812 -9.5048828125 246.80859375 -7.2353515625 c 0
 209.517578125 -1.3173828125 174.658203125 12.220703125 144.095703125 31.7568359375 c 0
 143.853515625 31.8388671875 143.610351562 32.0009765625 143.447265625 32.1640625 c 0
 108.427734375 51.5380859375 76.810546875 76.263671875 49.654296875 105.28515625 c 1
 59.625 116.795898438 l 1
 124.640625 191.540039062 l 1
 146.365234375 166.409179688 172.630859375 145.250976562 202.140625 129.362304688 c 0
 202.220703125 129.280273438 202.301757812 129.280273438 202.46484375 129.200195312 c 0
 222.974609375 118.174804688 245.185546875 109.663085938 268.533203125 104.3125 c 0
 275.505859375 103.33984375 282.55859375 102.853515625 289.7734375 102.853515625 c 0
 377.08203125 102.853515625 447.853515625 173.625 447.853515625 260.93359375 c 0
 447.853515625 336.892578125 394.349609375 400.287109375 322.9296875 415.446289062 c 0
 321.712890625 415.770507812 320.579101562 416.013671875 319.361328125 416.17578125 c 0
 313.688476562 417.067382812 308.094726562 417.796875 302.419921875 418.446289062 c 2
 302.337890625 418.446289062 l 2
 271.938476562 422.012695312 241.782226562 422.499023438 212.192382812 420.1484375 c 1
 276.883789062 532.182617188 l 1
 277.9375 534.046875 l 1
 362.65234375 680.858398438 l 1
 84.673828125 680.858398438 l 1
 84.673828125 794.352539062 l 1
 541.728515625 794.352539062 l 1
 476.146484375 680.858398438 l 1
 382.837890625 519.2109375 l 1
 381.37890625 516.69921875 l 1
 472.497070312 484.028320312 541.080078125 404.096679688 557.536132812 306.493164062 c 0
 560.048828125 291.657226562 561.345703125 276.498046875 561.345703125 260.93359375 c 0
EndSplineSet
Substitution2: "tnum" three.tabular
EndChar

StartChar: four
Encoding: 52 52 4
Width: 682
VWidth: 1000
Flags: HW
LayerCount: 2
Fore
SplineSet
501.51171875 320.112304688 m 1
 632.029296875 320.112304688 l 1
 632.029296875 206.618164062 l 1
 501.51171875 206.618164062 l 1
 501.51171875 -2.533203125 l 1
 388.01953125 -2.533203125 l 1
 388.01953125 206.618164062 l 1
 49.970703125 206.618164062 l 1
 49.970703125 320.112304688 l 1
 385.9921875 800.02734375 l 1
 501.51171875 800.02734375 l 1
 501.51171875 320.112304688 l 1
188.513671875 320.112304688 m 1
 388.01953125 320.112304688 l 1
 388.01953125 605.061523438 l 1
 188.513671875 320.112304688 l 1
EndSplineSet
Substitution2: "tnum" four.tabular
EndChar

StartChar: five
Encoding: 53 53 5
Width: 617
VWidth: 1000
Flags: HW
LayerCount: 2
Fore
SplineSet
567.102539062 256.879882812 m 0
 567.102539062 241.315429688 565.805664062 226.075195312 563.291992188 211.3203125 c 0
 541.647460938 85.26171875 431.802734375 -10.640625 299.583007812 -10.640625 c 0
 199.46484375 -10.640625 109.88671875 34.3525390625 49.8974609375 105.28515625 c 1
 130.639648438 186.02734375 l 1
 169.551757812 135.442382812 230.756835938 102.853515625 299.583007812 102.853515625 c 0
 384.622070312 102.853515625 453.609375 171.841796875 453.609375 256.879882812 c 0
 453.609375 321.00390625 414.454101562 375.966796875 358.6796875 399.15234375 c 0
 356.653320312 400.043945312 354.545898438 400.772460938 352.518554688 401.583984375 c 0
 335.170898438 408.150390625 317.498046875 413.419921875 299.583007812 417.392578125 c 0
 277.208007812 422.336914062 254.509765625 425.336914062 231.810546875 426.228515625 c 0
 192.8984375 427.930664062 153.905273438 423.715820312 116.209960938 413.825195312 c 1
 116.291015625 414.391601562 l 1
 121.07421875 456.141601562 l 1
 129.748046875 532.912109375 l 1
 147.583007812 688.96484375 l 1
 160.471679688 802.458984375 l 1
 541.970703125 802.458984375 l 1
 541.970703125 688.96484375 l 1
 261.805664062 688.96484375 l 1
 244.700195312 539.396484375 l 1
 292.934570312 536.559570312 341.65625 526.669921875 389.323242188 508.997070312 c 0
 391.106445312 508.349609375 392.971679688 507.700195312 394.754882812 506.970703125 c 0
 397.75390625 505.8359375 400.752929688 504.620117188 403.752929688 503.403320312 c 0
 499.736328125 462.7890625 567.102539062 367.698242188 567.102539062 256.879882812 c 0
EndSplineSet
Substitution2: "tnum" five.tabular
EndChar

StartChar: six
Encoding: 54 54 6
Width: 623
VWidth: 1000
Flags: HW
LayerCount: 2
Fore
SplineSet
496.395507812 427.954101562 m 4
 597.405273438 329.1328125 599.108398438 167.162109375 500.288085938 66.234375 c 4
 470.779296875 35.9970703125 435.677734375 14.67578125 398.143554688 2.353515625 c 6
 398.0625 2.353515625 l 6
 336.451171875 -18.0751953125 268.598632812 -14.42578125 209.176757812 13.37890625 c 4
 183.72265625 25.21484375 159.807617188 41.58984375 138.567382812 62.3427734375 c 4
 113.194335938 87.1494140625 94.1435546875 115.846679688 81.3349609375 146.65234375 c 4
 81.1728515625 147.057617188 81.009765625 147.381835938 80.9296875 147.706054688 c 4
 79.8759765625 150.219726562 78.90234375 152.651367188 78.0107421875 155.1640625 c 4
 77.849609375 155.245117188 77.849609375 155.407226562 77.9296875 155.489257812 c 4
 77.201171875 157.352539062 76.470703125 159.298828125 75.7412109375 161.245117188 c 4
 75.66015625 161.40625 75.5791015625 161.650390625 75.5791015625 161.811523438 c 4
 57.095703125 213.045898438 48.3408203125 267.5234375 49.880859375 322.243164062 c 4
 50.69140625 348.184570312 53.771484375 374.125976562 59.2841796875 399.82421875 c 4
 59.2841796875 399.985351562 59.3662109375 400.229492188 59.3662109375 400.391601562 c 4
 63.013671875 417.415039062 67.7158203125 434.27734375 73.5517578125 450.895507812 c 4
 123.89453125 607.192382812 231.469726562 737.872070312 371.553710938 818.208984375 c 1
 426.759765625 739.331054688 l 1
 436.893554688 724.819335938 l 1
 334.830078125 668.802734375 252.790039062 580.844726562 204.231445312 474.486328125 c 5
 207.555664062 476.270507812 210.87890625 477.810546875 214.203125 479.1875 c 6
 214.284179688 479.1875 l 6
 257.655273438 498.400390625 305.322265625 504.885742188 351.610351562 498.64453125 c 4
 351.692382812 498.724609375 351.7734375 498.724609375 351.935546875 498.64453125 c 4
 404.547851562 491.509765625 455.458007812 468 496.395507812 427.954101562 c 4
375.202148438 116.333007812 m 4
 446.377929688 148.192382812 478.237304688 231.69140625 446.296875 302.868164062 c 4
 423.922851562 352.885742188 376.09375 383.448242188 324.940429688 386.205078125 c 4
 303.375976562 386.041992188 282.624023438 382.3125 263.329101562 375.422851562 c 4
 222.471679688 361.155273438 187.9375 333.348632812 165.239257812 297.2734375 c 6
 165.239257812 297.193359375 l 6
 166.29296875 268.08984375 171.400390625 239.635742188 180.155273438 212.478515625 c 4
 180.155273438 212.235351562 180.236328125 211.9921875 180.3984375 211.749023438 c 4
 182.262695312 203.561523438 185.100585938 195.373046875 188.666992188 187.4296875 c 4
 190.126953125 184.185546875 191.666992188 180.943359375 193.369140625 177.86328125 c 4
 193.612304688 177.458007812 193.774414062 177.1328125 193.935546875 176.809570312 c 4
 229.038085938 113.171875 307.672851562 86.0146484375 375.202148438 116.333007812 c 4
EndSplineSet
Substitution2: "tnum" six.tabular
EndChar

StartChar: seven
Encoding: 55 55 7
Width: 593
VWidth: 1000
Flags: HW
LayerCount: 2
Fore
SplineSet
543.34765625 798.405273438 m 1
 543.34765625 675.18359375 l 1
 417.61328125 467.572265625 322.1171875 239.612304688 262.857421875 -2.533203125 c 1
 146.202148438 -2.533203125 l 1
 148.229492188 6.5458984375 150.41796875 15.5439453125 152.607421875 24.54296875 c 0
 210.002929688 259.069335938 299.905273438 480.8671875 417.2890625 684.912109375 c 1
 49.65234375 684.912109375 l 1
 49.65234375 798.405273438 l 1
 543.34765625 798.405273438 l 1
EndSplineSet
Substitution2: "tnum" seven.tabular
EndChar

StartChar: eight
Encoding: 56 56 8
Width: 638
VWidth: 1000
Flags: HW
LayerCount: 2
Fore
SplineSet
509.141601562 412.689453125 m 0
 557.700195312 368.264648438 588.1015625 304.384765625 588.1015625 233.37109375 c 0
 588.1015625 162.03125 557.375976562 97.8271484375 508.411132812 53.4033203125 c 0
 508.411132812 53.3212890625 508.33203125 53.3212890625 508.33203125 53.3212890625 c 2
 500.873046875 46.51171875 492.9296875 40.1884765625 484.66015625 34.3525390625 c 0
 442.504882812 9.5458984375 394.188476562 -6.099609375 342.629882812 -9.7490234375 c 0
 334.848632812 -10.396484375 326.984375 -10.640625 319.040039062 -10.640625 c 2
 318.958984375 -10.640625 l 2
 311.015625 -10.640625 303.3125 -10.396484375 295.53125 -9.7490234375 c 2
 295.368164062 -9.7490234375 l 2
 243.809570312 -6.099609375 195.494140625 9.5458984375 153.33984375 34.3525390625 c 0
 145.071289062 40.1884765625 137.126953125 46.51171875 129.668945312 53.3212890625 c 2
 129.668945312 53.3212890625 129.586914062 53.3212890625 129.586914062 53.4033203125 c 0
 80.623046875 97.8271484375 49.8984375 162.03125 49.8984375 233.37109375 c 0
 49.8984375 304.384765625 80.298828125 368.264648438 128.857421875 412.689453125 c 0
 134.532226562 417.87890625 140.450195312 422.823242188 146.611328125 427.444335938 c 1
 121.723632812 449.737304688 101.86328125 477.705078125 89.0546875 509.241210938 c 2
 89.0546875 509.403320312 l 2
 78.4345703125 535.34375 72.59765625 563.5546875 72.59765625 593.306640625 c 0
 72.59765625 622.815429688 78.3525390625 650.944335938 88.73046875 676.723632812 c 0
 110.375 730.309570312 152.125 773.517578125 204.735351562 796.946289062 c 0
 216.896484375 801.2421875 229.380859375 804.809570312 242.109375 807.646484375 c 0
 262.69921875 812.349609375 283.857421875 815.186523438 305.6640625 815.915039062 c 0
 310.04296875 816.158203125 314.58203125 816.240234375 319.040039062 816.240234375 c 0
 323.254882812 816.240234375 327.390625 816.158203125 331.524414062 815.99609375 c 0
 353.57421875 815.266601562 375.05859375 812.4296875 395.891601562 807.646484375 c 0
 404.403320312 805.783203125 412.8359375 803.512695312 421.184570312 800.999023438 c 0
 479.6328125 778.30078125 526.083984375 731.525390625 548.458984375 672.833007812 c 0
 557.943359375 648.107421875 563.1328125 621.35546875 563.1328125 593.306640625 c 0
 563.1328125 565.095703125 557.943359375 538.342773438 548.296875 513.537109375 c 2
 548.296875 513.375 l 2
 535.731445312 480.624023438 515.626953125 451.520507812 490.090820312 428.416992188 c 1
 496.73828125 423.553710938 503.0625 418.284179688 509.141601562 412.689453125 c 0
211.05859375 662.943359375 m 0
 195.494140625 643.97265625 186.090820312 619.735351562 186.090820312 593.306640625 c 0
 186.090820312 544.422851562 218.03125 503.080078125 262.211914062 489.0546875 c 0
 262.293945312 489.0546875 262.375 488.973632812 262.455078125 488.973632812 c 0
 262.6171875 488.892578125 262.860351562 488.892578125 263.0234375 488.811523438 c 0
 271.29296875 486.78515625 279.641601562 485.245117188 288.235351562 484.19140625 c 0
 288.31640625 484.110351562 288.396484375 484.110351562 288.478515625 484.110351562 c 0
 298.44921875 482.731445312 308.6640625 482.083007812 318.958984375 482.083007812 c 0
 331.6875 482.083007812 344.251953125 483.13671875 356.411132812 485.083007812 c 0
 356.57421875 485.083007812 356.735351562 485.083007812 356.8984375 485.163085938 c 0
 359.086914062 485.48828125 361.356445312 485.893554688 363.546875 486.379882812 c 0
 364.84375 486.624023438 366.220703125 486.865234375 367.517578125 487.271484375 c 0
 414.69921875 499.430664062 449.638671875 542.315429688 449.638671875 593.306640625 c 0
 449.638671875 619.004882812 440.801757812 642.594726562 425.966796875 661.241210938 c 0
 415.751953125 674.048828125 402.782226562 684.587890625 387.947265625 691.802734375 c 0
 385.595703125 692.61328125 383.244140625 693.504882812 380.8125 694.396484375 c 0
 365.0859375 698.774414062 348.62890625 701.530273438 331.6875 702.340820312 c 0
 331.60546875 702.422851562 331.524414062 702.422851562 331.443359375 702.340820312 c 0
 327.390625 702.665039062 323.17578125 702.747070312 319.040039062 702.747070312 c 0
 314.5 702.747070312 309.9609375 702.583984375 305.501953125 702.260742188 c 0
 305.421875 702.340820312 305.33984375 702.340820312 305.258789062 702.260742188 c 0
 296.828125 701.85546875 285.31640625 699.828125 274.77734375 697.720703125 c 0
 252.890625 693.26171875 232.298828125 683.534179688 216.0859375 668.211914062 c 0
 214.140625 666.428710938 212.4375 664.645507812 211.05859375 662.943359375 c 0
460.825195312 175.165039062 m 0
 469.662109375 192.59375 474.606445312 212.374023438 474.606445312 233.37109375 c 0
 474.606445312 272.525390625 457.177734375 307.708984375 429.696289062 331.54296875 c 0
 422.318359375 336.244140625 415.0234375 340.784179688 407.56640625 345.485351562 c 0
 388.109375 354.403320312 367.03125 360.40234375 344.900390625 363.077148438 c 2
 344.8203125 363.077148438 l 2
 336.388671875 364.211914062 327.796875 364.69921875 319.040039062 364.69921875 c 2
 318.958984375 364.69921875 l 2
 310.204101562 364.69921875 301.610351562 364.211914062 293.1796875 363.077148438 c 2
 293.098632812 363.077148438 l 2
 270.966796875 360.40234375 249.890625 354.403320312 230.434570312 345.485351562 c 0
 222.9765625 340.784179688 215.6796875 336.244140625 208.302734375 331.54296875 c 0
 180.821289062 307.708984375 163.391601562 272.525390625 163.391601562 233.37109375 c 0
 163.391601562 212.374023438 168.336914062 192.59375 177.172851562 175.165039062 c 0
 192.169921875 145.413085938 219.814453125 124.498046875 251.4296875 113.87890625 c 0
 266.671875 108.771484375 282.8046875 105.28515625 299.259765625 103.826171875 c 2
 299.74609375 103.826171875 l 2
 306.0703125 103.176757812 312.473632812 102.853515625 318.958984375 102.853515625 c 2
 319.040039062 102.853515625 l 2
 325.525390625 102.853515625 331.9296875 103.176757812 338.25390625 103.826171875 c 2
 338.739257812 103.826171875 l 2
 355.1953125 105.28515625 371.329101562 108.771484375 386.568359375 113.87890625 c 0
 418.184570312 124.498046875 445.828125 145.413085938 460.825195312 175.165039062 c 0
EndSplineSet
Substitution2: "tnum" eight.tabular
EndChar

StartChar: nine
Encoding: 57 57 9
Width: 626
VWidth: 1000
Flags: HW
LayerCount: 2
Fore
SplineSet
575.818359375 519.373046875 m 4
 576.223632812 512.239257812 576.466796875 505.10546875 576.466796875 497.890625 c 4
 576.466796875 451.439453125 567.629882812 407.014648438 551.579101562 366.239257812 c 4
 551.579101562 366.157226562 551.579101562 365.99609375 551.498046875 365.833007812 c 4
 506.668945312 207.99609375 404.200195312 74.3984375 268.33203125 -10.640625 c 5
 173.890625 65.8056640625 l 5
 214.990234375 87.4501953125 253.010742188 114.364257812 286.977539062 145.494140625 c 4
 342.184570312 196.161132812 386.932617188 258.095703125 417.4140625 327.732421875 c 5
 404.848632812 321.571289062 391.715820312 316.3828125 378.096679688 312.329101562 c 4
 354.912109375 305.438476562 330.34765625 301.708984375 304.893554688 301.708984375 c 4
 163.837890625 301.708984375 49.533203125 416.013671875 49.533203125 557.069335938 c 4
 49.533203125 617.3828125 70.3671875 672.833007812 105.307617188 716.446289062 c 4
 152.1640625 774.9765625 224.151367188 812.4296875 304.893554688 812.4296875 c 4
 339.751953125 812.4296875 372.989257812 805.458007812 403.30859375 792.811523438 c 4
 431.357421875 781.138671875 456.8125 764.599609375 478.700195312 744.252929688 c 4
 506.830078125 718.068359375 529.04296875 685.641601562 543.1484375 649.161132812 c 4
 561.712890625 609.357421875 573.143554688 565.5 575.818359375 519.373046875 c 4
360.26171875 426.470703125 m 6
 403.146484375 441.873046875 439.059570312 471.94921875 461.756835938 510.780273438 c 4
 462.000976562 511.186523438 462.243164062 511.672851562 462.487304688 512.078125 c 6
 462.487304688 512.158203125 l 6
 462.487304688 513.780273438 462.405273438 515.3203125 462.163085938 516.942382812 c 6
 462.163085938 517.103515625 l 6
 459.811523438 548.314453125 451.543945312 577.985351562 438.491210938 604.817382812 c 4
 428.196289062 626.137695312 414.901367188 645.674804688 399.092773438 663.0234375 c 6
 398.930664062 663.186523438 l 6
 373.880859375 685.479492188 340.967773438 698.936523438 304.893554688 698.936523438 c 4
 226.583007812 698.936523438 163.026367188 635.379882812 163.026367188 557.069335938 c 4
 163.026367188 480.461914062 223.826171875 417.958984375 299.786132812 415.284179688 c 4
 320.944335938 415.770507812 341.2109375 419.661132812 360.099609375 426.390625 c 4
 360.181640625 426.390625 360.26171875 426.470703125 360.26171875 426.470703125 c 6
EndSplineSet
Substitution2: "tnum" nine.tabular
EndChar

StartChar: period
Encoding: 46 46 10
Width: 210
VWidth: 1000
Flags: HW
LayerCount: 2
Fore
SplineSet
160.416992188 0.31640625 m 5
 49.5830078125 0.31640625 l 5
 49.5830078125 115 l 5
 160.416992188 115 l 5
 160.416992188 0.31640625 l 5
EndSplineSet
EndChar

StartChar: exclam
Encoding: 33 33 11
Width: 210
VWidth: 1000
Flags: HW
LayerCount: 2
Fore
SplineSet
160.416992188 0.31640625 m 5
 49.5830078125 0.31640625 l 5
 49.5830078125 115 l 5
 160.416992188 115 l 5
 160.416992188 0.31640625 l 5
160.416992188 238 m 5
 49.5830078125 238 l 5
 49.5830078125 788.025390625 l 5
 160.416992188 788.025390625 l 5
 160.416992188 238 l 5
EndSplineSet
EndChar

StartChar: colon
Encoding: 58 58 12
Width: 210
VWidth: 1000
Flags: HW
LayerCount: 2
Fore
SplineSet
160.416992188 319 m 5
 49.5830078125 319 l 5
 49.5830078125 433.68359375 l 5
 160.416992188 433.68359375 l 5
 160.416992188 319 l 5
160.416992188 0.31640625 m 1
 49.5830078125 0.31640625 l 1
 49.5830078125 115 l 1
 160.416992188 115 l 1
 160.416992188 0.31640625 l 1
EndSplineSet
EndChar

StartChar: plus
Encoding: 43 43 13
Width: 577
VWidth: 1000
Flags: HW
LayerCount: 2
Fore
SplineSet
343.916992188 146.31640625 m 1
 233.083007812 146.31640625 l 1
 233.083007812 329.741210938 l 1
 49.658203125 329.741210938 l 1
 49.658203125 440.575195312 l 1
 233.083007812 440.575195312 l 1
 233.083007812 624 l 1
 343.916992188 624 l 1
 343.916992188 440.575195312 l 1
 527.341796875 440.575195312 l 1
 527.341796875 329.741210938 l 1
 343.916992188 329.741210938 l 1
 343.916992188 146.31640625 l 1
EndSplineSet
EndChar

StartChar: hyphen
Encoding: 45 45 14
Width: 577
VWidth: 1000
Flags: HW
LayerCount: 2
Fore
SplineSet
49.658203125 329.741210938 m 1
 49.658203125 440.575195312 l 1
 527.341796875 440.575195312 l 1
 527.341796875 329.741210938 l 1
 49.658203125 329.741210938 l 1
EndSplineSet
EndChar

StartChar: comma
Encoding: 44 44 15
Width: 240
VWidth: 1000
Flags: HW
LayerCount: 2
Fore
SplineSet
190.208984375 0 m 5
 190.208984375 0 190.208984375 -1 190.208984375 -4 c 4
 190.208984375 -92 79.791015625 -127.583007812 79.791015625 -127.583007812 c 5
 49.791015625 -92.7490234375 l 4
 49.791015625 -92.7490234375 79.375 -60 79.375 0 c 4
 79.375 45.001953125 79.375 115 79.375 115 c 5
 190.208984375 115 l 5
 190.208984375 0 l 5
EndSplineSet
EndChar

StartChar: quotedbl
Encoding: 34 34 16
Width: 465
VWidth: 1000
Flags: HW
LayerCount: 2
Fore
SplineSet
415.208984375 673 m 5
 415.208984375 673 415.208984375 672 415.208984375 669 c 4
 415.208984375 581 304.791015625 545.416992188 304.791015625 545.416992188 c 5
 274.791015625 580.250976562 l 4
 274.791015625 580.250976562 304.375 613 304.375 673 c 4
 304.375 718.001953125 304.375 788 304.375 788 c 5
 415.208984375 788 l 5
 415.208984375 673 l 5
190.208984375 673 m 1
 190.208984375 673 190.208984375 672 190.208984375 669 c 0
 190.208984375 581 79.791015625 545.416992188 79.791015625 545.416992188 c 1
 49.791015625 580.250976562 l 0
 49.791015625 580.250976562 79.375 613 79.375 673 c 0
 79.375 718.001953125 79.375 788 79.375 788 c 1
 190.208984375 788 l 1
 190.208984375 673 l 1
EndSplineSet
EndChar

StartChar: semicolon
Encoding: 59 59 17
Width: 240
VWidth: 1000
Flags: HW
LayerCount: 2
Fore
SplineSet
190.208984375 319 m 1
 79.375 319 l 1
 79.375 433.68359375 l 1
 190.208984375 433.68359375 l 1
 190.208984375 319 l 1
190.208984375 0 m 1
 190.208984375 0 190.208984375 -1 190.208984375 -4 c 0
 190.208984375 -92 79.791015625 -127.583007812 79.791015625 -127.583007812 c 1
 49.791015625 -92.7490234375 l 0
 49.791015625 -92.7490234375 79.375 -60 79.375 0 c 0
 79.375 45.001953125 79.375 115 79.375 115 c 1
 190.208984375 115 l 1
 190.208984375 0 l 1
EndSplineSet
EndChar

StartChar: equal
Encoding: 61 61 18
Width: 577
VWidth: 1000
Flags: HW
LayerCount: 2
Fore
SplineSet
49.658203125 101 m 1
 49.658203125 211.833984375 l 1
 527.341796875 211.833984375 l 1
 527.341796875 101 l 1
 49.658203125 101 l 1
49.658203125 329.741210938 m 1
 49.658203125 440.575195312 l 1
 527.341796875 440.575195312 l 1
 527.341796875 329.741210938 l 1
 49.658203125 329.741210938 l 1
EndSplineSet
EndChar

StartChar: question
Encoding: 63 63 19
Width: 565
VWidth: 1000
Flags: HW
LayerCount: 2
Fore
SplineSet
228.0546875 254.564453125 m 2
 228.0546875 254.564453125 226.116210938 329 277.116210938 380 c 0
 317.5 420.383789062 345.913085938 446.658203125 355.333984375 456.079101562 c 0
 358.896484375 459.641601562 362.458984375 463.282226562 365.94140625 467.00390625 c 0
 368.950195312 470.169921875 371.799804688 473.416015625 374.729492188 476.662109375 c 0
 383.913085938 487.982421875 390.879882812 500.571289062 395.471679688 513.712890625 c 0
 400.142578125 526.93359375 402.438476562 540.708984375 402.516601562 554.5625 c 0
 402.674804688 586.387695312 390.563476562 618.291015625 366.258789062 642.595703125 c 0
 341.955078125 666.900390625 310.129882812 679.012695312 278.303710938 678.932617188 c 0
 260.571289062 678.932617188 242.916992188 675.133789062 226.530273438 667.612304688 c 0
 224.233398438 666.583007812 221.9375 665.396484375 219.642578125 664.208984375 c 0
 189.795898438 648.533203125 163.038085938 626.049804688 141.900390625 597.075195312 c 0
 138.971679688 593.116210938 136.200195312 589 133.666992188 584.883789062 c 1
 49.9873046875 657.55859375 l 1
 85.375 704.345703125 130.18359375 740.68359375 180.137695312 766.016601562 c 0
 183.9375 767.916992188 187.81640625 769.81640625 191.6171875 771.478515625 c 0
 219.087890625 783.591796875 248.616210938 789.766601562 278.303710938 789.766601562 c 0
 338.946289062 789.924804688 399.587890625 766.887695312 445.821289062 720.970703125 c 0
 492.133789062 675.053710938 515.170898438 614.80859375 515.012695312 554.641601562 c 1
 514.93359375 554.641601562 l 1
 514.853515625 502.470703125 497.200195312 450.220703125 462.049804688 407.470703125 c 0
 456.428710938 401.375 451.045898438 395.200195312 445.267578125 389.262695312 c 0
 438.616210938 382.216796875 431.84765625 375.370117188 425 368.521484375 c 0
 417.2421875 360.762695312 388.462890625 338 367.5 317.037109375 c 0
 334.5 284.037109375 338.5 246 338.5 246 c 2
 228.0546875 254.564453125 l 2
337.916992188 0.31640625 m 1
 227.083007812 0.31640625 l 1
 227.083007812 115 l 1
 337.916992188 115 l 1
 337.916992188 0.31640625 l 1
EndSplineSet
EndChar

StartChar: numbersign
Encoding: 35 35 20
Width: 577
VWidth: 1000
Flags: HW
LayerCount: 2
Fore
SplineSet
49.658203125 329.741210938 m 1
 49.658203125 440.575195312 l 1
 118.713867188 440.575195312 l 1
 118.713867188 509.62890625 l 1
 229.547851562 509.62890625 l 1
 229.547851562 440.575195312 l 1
 347.455078125 440.575195312 l 1
 347.455078125 509.62890625 l 1
 458.2890625 509.62890625 l 1
 458.2890625 440.575195312 l 1
 527.341796875 440.575195312 l 1
 527.341796875 329.741210938 l 1
 458.2890625 329.741210938 l 1
 458.2890625 211.833984375 l 1
 527.341796875 211.833984375 l 1
 527.341796875 101 l 1
 458.2890625 101 l 1
 458.2890625 31.9453125 l 1
 347.455078125 31.9453125 l 1
 347.455078125 101 l 1
 229.547851562 101 l 1
 229.547851562 31.9453125 l 1
 118.713867188 31.9453125 l 1
 118.713867188 101 l 1
 49.658203125 101 l 1
 49.658203125 211.833984375 l 1
 118.713867188 211.833984375 l 1
 118.713867188 329.741210938 l 1
 49.658203125 329.741210938 l 1
347.455078125 211.833984375 m 1
 347.455078125 329.741210938 l 1
 229.547851562 329.741210938 l 1
 229.547851562 211.833984375 l 1
 347.455078125 211.833984375 l 1
EndSplineSet
EndChar

StartChar: slash
Encoding: 47 47 21
Width: 578
VWidth: 1000
Flags: HW
LayerCount: 2
Fore
SplineSet
160.759765625 0.31640625 m 1
 49.92578125 0.31640625 l 1
 417.240234375 788.025390625 l 1
 528.07421875 788.025390625 l 1
 160.759765625 0.31640625 l 1
EndSplineSet
EndChar

StartChar: backslash
Encoding: 92 92 22
Width: 578
VWidth: 1000
Flags: HW
LayerCount: 2
Fore
SplineSet
417.240234375 0.31640625 m 1
 528.07421875 0.31640625 l 1
 160.759765625 788.025390625 l 1
 49.92578125 788.025390625 l 1
 417.240234375 0.31640625 l 1
EndSplineSet
EndChar

StartChar: underscore
Encoding: 95 95 23
Width: 700
VWidth: 1000
Flags: HW
LayerCount: 2
Fore
SplineSet
50 0 m 1
 50 110.833984375 l 1
 650 110.833984375 l 1
 650 0 l 1
 50 0 l 1
EndSplineSet
EndChar

StartChar: quotesingle
Encoding: 39 39 24
Width: 240
VWidth: 1000
Flags: HW
LayerCount: 2
Fore
SplineSet
190.208984375 673 m 1
 190.208984375 673 190.208984375 672 190.208984375 669 c 0
 190.208984375 581 79.791015625 545.416992188 79.791015625 545.416992188 c 1
 49.791015625 580.250976562 l 0
 49.791015625 580.250976562 79.3740234375 613 79.3740234375 673 c 0
 79.3740234375 718.001953125 79.3740234375 788 79.3740234375 788 c 1
 190.208984375 788 l 1
 190.208984375 673 l 1
EndSplineSet
EndChar

StartChar: zero.tabular
Encoding: 65536 -1 25
Width: 600
VWidth: 1000
Flags: HW
LayerCount: 2
Fore
SplineSet
535.678710938 611.166015625 m 4
 554.916015625 542.766601562 565.208984375 470.645507812 565.208984375 396.150390625 c 4
 565.208984375 364.087890625 563.30859375 332.420898438 559.587890625 301.387695312 c 4
 556.81640625 254.758789062 547.474609375 209.870117188 532.275390625 167.754882812 c 4
 532.196289062 167.516601562 532.116210938 167.200195312 532.037109375 166.8828125 c 4
 529.900390625 159.599609375 527.4453125 152.396484375 524.674804688 145.349609375 c 4
 524.674804688 145.296875 524.649414062 145.244140625 524.595703125 145.19140625 c 4
 519.845703125 133.158203125 514.146484375 121.599609375 507.575195312 110.595703125 c 6
 507.49609375 110.516601562 l 6
 474.325195312 54.7041015625 419.224609375 13.4580078125 354.150390625 -1.50390625 c 4
 343.857421875 -3.87890625 333.25 -5.541015625 322.5625 -6.4912109375 c 4
 315.120117188 -7.2822265625 307.599609375 -7.599609375 300 -7.599609375 c 4
 292.400390625 -7.599609375 284.879882812 -7.2822265625 277.4375 -6.4912109375 c 4
 266.75 -5.541015625 256.142578125 -3.87890625 245.849609375 -1.50390625 c 4
 180.775390625 13.4580078125 125.674804688 54.7041015625 92.50390625 110.516601562 c 6
 92.4248046875 110.595703125 l 6
 85.853515625 121.599609375 80.154296875 133.158203125 75.404296875 145.19140625 c 4
 75.3505859375 145.244140625 75.3251953125 145.296875 75.3251953125 145.349609375 c 4
 72.5546875 152.396484375 70.099609375 159.599609375 67.962890625 166.8828125 c 4
 67.8837890625 167.200195312 67.8037109375 167.516601562 67.724609375 167.754882812 c 4
 52.525390625 209.870117188 43.18359375 254.758789062 40.412109375 301.387695312 c 4
 36.69140625 332.420898438 34.791015625 364.087890625 34.791015625 396.150390625 c 4
 34.791015625 470.645507812 45.083984375 542.766601562 64.3212890625 611.166015625 c 4
 67.091796875 623.4375 70.732421875 635.391601562 75.3251953125 646.950195312 c 4
 75.3251953125 647.002929688 75.3505859375 647.055664062 75.404296875 647.108398438 c 4
 83.0830078125 666.583007812 93.2958984375 684.870117188 105.56640625 701.49609375 c 4
 135.80859375 742.662109375 178.795898438 773.775390625 228.670898438 789.212890625 c 4
 244.344726562 794.041015625 260.654296875 797.287109375 277.4375 798.791015625 c 4
 284.879882812 799.583984375 292.400390625 799.900390625 300 799.900390625 c 4
 307.599609375 799.900390625 315.120117188 799.583984375 322.5625 798.791015625 c 4
 339.344726562 797.287109375 355.654296875 794.041015625 371.329101562 789.212890625 c 4
 421.204101562 773.775390625 464.19140625 742.662109375 494.43359375 701.49609375 c 4
 506.704101562 684.870117188 516.916992188 666.583007812 524.595703125 647.108398438 c 4
 524.649414062 647.055664062 524.674804688 647.002929688 524.674804688 646.950195312 c 4
 528.633789062 635.154296875 532.275390625 623.200195312 535.678710938 611.166015625 c 4
453.900390625 372.478515625 m 4
 454.216796875 380.31640625 454.375 388.233398438 454.375 396.150390625 c 4
 454.375 404.06640625 454.216796875 411.983398438 453.900390625 419.821289062 c 4
 452 476.741210938 443.133789062 531.841796875 428.012695312 584.408203125 c 4
 428.012695312 584.56640625 427.932617188 584.646484375 427.932617188 584.803710938 c 4
 425.55859375 593.037109375 423.025390625 601.192382812 420.333984375 609.266601562 c 4
 420.333984375 609.345703125 420.333984375 609.424804688 420.25390625 609.50390625 c 4
 409.645507812 634.362304688 391.595703125 655.341796875 368.875 669.43359375 c 4
 348.845703125 681.862304688 325.25390625 689.06640625 300 689.06640625 c 4
 274.74609375 689.06640625 251.154296875 681.862304688 231.125 669.43359375 c 4
 208.404296875 655.341796875 190.354492188 634.362304688 179.74609375 609.50390625 c 4
 179.666015625 609.424804688 179.666015625 609.345703125 179.666015625 609.266601562 c 4
 176.974609375 601.192382812 174.44140625 593.037109375 172.067382812 584.803710938 c 4
 172.067382812 584.646484375 171.987304688 584.56640625 171.987304688 584.408203125 c 4
 156.866210938 531.841796875 148 476.741210938 146.099609375 419.821289062 c 4
 145.783203125 411.983398438 145.625 404.06640625 145.625 396.150390625 c 4
 145.625 388.233398438 145.783203125 380.31640625 146.099609375 372.478515625 c 4
 146.733398438 351.895507812 148.317382812 331.62890625 150.849609375 311.599609375 c 6
 150.849609375 311.283203125 l 6
 155.282226562 275.896484375 162.329101562 241.37890625 171.987304688 207.891601562 c 4
 171.987304688 207.733398438 172.067382812 207.654296875 172.067382812 207.49609375 c 4
 173.333984375 203.220703125 174.599609375 199.025390625 175.866210938 194.829101562 c 4
 179.904296875 184.458984375 184.416992188 174.325195312 189.404296875 164.428710938 c 4
 189.404296875 164.349609375 189.482421875 164.19140625 189.5625 164.112304688 c 4
 212.678710938 127.537109375 253.529296875 103.233398438 300 103.233398438 c 4
 346.470703125 103.233398438 387.321289062 127.537109375 410.4375 164.112304688 c 4
 410.517578125 164.19140625 410.594726562 164.349609375 410.594726562 164.428710938 c 4
 415.583007812 174.325195312 420.095703125 184.458984375 424.133789062 194.829101562 c 4
 425.400390625 199.025390625 426.666015625 203.220703125 427.932617188 207.49609375 c 4
 427.932617188 207.654296875 428.012695312 207.733398438 428.012695312 207.891601562 c 4
 437.670898438 241.37890625 444.716796875 275.896484375 449.150390625 311.283203125 c 6
 449.150390625 311.599609375 l 6
 451.682617188 331.62890625 453.266601562 351.895507812 453.900390625 372.478515625 c 4
EndSplineSet
EndChar

StartChar: one.tabular
Encoding: 65537 -1 26
Width: 600
VWidth: 1000
Flags: HW
LayerCount: 2
Fore
SplineSet
355.416992188 0.31640625 m 5
 244.583007812 0.31640625 l 5
 244.583007812 788.025390625 l 5
 355.416992188 788.025390625 l 5
 355.416992188 0.31640625 l 5
EndSplineSet
EndChar

StartChar: two.tabular
Encoding: 65538 -1 27
Width: 600
VWidth: 1000
Flags: HW
LayerCount: 2
Fore
SplineSet
227.405273438 166.8046875 m 4
 215.133789062 149.466796875 204.604492188 130.862304688 196.0546875 111.150390625 c 5
 504.8046875 111.150390625 l 5
 504.8046875 0.31640625 l 5
 69.3876953125 0.31640625 l 5
 69.3876953125 16.94140625 l 6
 69.3876953125 97.216796875 94.7998046875 171.553710938 138.025390625 232.353515625 c 4
 139.212890625 234.095703125 140.478515625 235.758789062 141.74609375 237.5 c 4
 144.517578125 241.141601562 147.366210938 244.783203125 150.137695312 248.424804688 c 4
 151.721679688 250.404296875 153.303710938 252.383789062 154.887695312 254.283203125 c 6
 155.125 254.599609375 l 6
 179.112304688 284.366210938 205.791015625 311.837890625 234.767578125 336.616210938 c 6
 343.303710938 428.6875 l 6
 353.596679688 437.474609375 363.413085938 446.658203125 372.833984375 456.079101562 c 4
 376.396484375 459.641601562 379.958984375 463.282226562 383.44140625 467.00390625 c 4
 386.450195312 470.169921875 389.299804688 473.416015625 392.229492188 476.662109375 c 4
 401.413085938 487.982421875 408.379882812 500.571289062 412.971679688 513.712890625 c 4
 417.642578125 526.93359375 419.938476562 540.708984375 420.016601562 554.5625 c 4
 420.174804688 586.387695312 408.063476562 618.291015625 383.758789062 642.595703125 c 4
 359.455078125 666.900390625 327.629882812 679.012695312 295.803710938 678.932617188 c 4
 278.071289062 678.932617188 260.416992188 675.133789062 244.030273438 667.612304688 c 4
 241.733398438 666.583007812 239.4375 665.396484375 237.142578125 664.208984375 c 4
 207.295898438 648.533203125 180.538085938 626.049804688 159.400390625 597.075195312 c 4
 156.471679688 593.116210938 153.700195312 589 151.166992188 584.883789062 c 5
 67.4873046875 657.55859375 l 5
 102.875 704.345703125 147.68359375 740.68359375 197.637695312 766.016601562 c 4
 201.4375 767.916992188 205.31640625 769.81640625 209.1171875 771.478515625 c 4
 236.587890625 783.591796875 266.116210938 789.766601562 295.803710938 789.766601562 c 4
 356.446289062 789.924804688 417.087890625 766.887695312 463.321289062 720.970703125 c 4
 509.633789062 675.053710938 532.670898438 614.80859375 532.512695312 554.641601562 c 5
 532.43359375 554.641601562 l 5
 532.353515625 502.470703125 514.700195312 450.220703125 479.549804688 407.470703125 c 4
 473.928710938 401.375 468.545898438 395.200195312 462.767578125 389.262695312 c 4
 456.116210938 382.216796875 449.387695312 375.329101562 442.5 368.521484375 c 4
 434.7421875 360.762695312 404.420898438 335.19140625 395.950195312 327.987304688 c 6
 306.80859375 252.462890625 l 6
 282.978515625 232.037109375 261.12890625 209.474609375 241.416015625 185.091796875 c 6
 241.258789062 184.775390625 l 6
 239.913085938 183.271484375 238.646484375 181.608398438 237.37890625 180.025390625 c 4
 235.083984375 177.016601562 232.708984375 174.008789062 230.413085938 171 c 4
 229.383789062 169.575195312 228.354492188 168.229492188 227.405273438 166.8046875 c 4
EndSplineSet
EndChar

StartChar: three.tabular
Encoding: 65539 -1 28
Width: 600
VWidth: 1000
Flags: HW
LayerCount: 2
Fore
SplineSet
555.845703125 260.93359375 m 0
 555.845703125 247.4765625 554.873046875 234.26171875 552.927734375 221.373046875 c 0
 533.794921875 90.1259765625 420.790039062 -10.640625 284.2734375 -10.640625 c 0
 269.681640625 -10.640625 255.333007812 -9.5048828125 241.30859375 -7.2353515625 c 0
 204.017578125 -1.3173828125 169.158203125 12.220703125 138.595703125 31.7568359375 c 0
 138.353515625 31.8388671875 138.110351562 32.0009765625 137.947265625 32.1640625 c 0
 102.927734375 51.5380859375 71.310546875 76.263671875 44.154296875 105.28515625 c 1
 54.125 116.795898438 l 1
 119.140625 191.540039062 l 1
 140.865234375 166.409179688 167.130859375 145.250976562 196.640625 129.362304688 c 0
 196.720703125 129.280273438 196.801757812 129.280273438 196.96484375 129.200195312 c 0
 217.474609375 118.174804688 239.685546875 109.663085938 263.033203125 104.3125 c 0
 270.005859375 103.33984375 277.05859375 102.853515625 284.2734375 102.853515625 c 0
 371.58203125 102.853515625 442.353515625 173.625 442.353515625 260.93359375 c 0
 442.353515625 336.892578125 388.849609375 400.287109375 317.4296875 415.446289062 c 0
 316.212890625 415.770507812 315.079101562 416.013671875 313.861328125 416.17578125 c 0
 308.188476562 417.067382812 302.594726562 417.796875 296.919921875 418.446289062 c 2
 296.837890625 418.446289062 l 2
 266.438476562 422.012695312 236.282226562 422.499023438 206.692382812 420.1484375 c 1
 271.383789062 532.182617188 l 1
 272.4375 534.046875 l 1
 357.15234375 680.858398438 l 1
 79.173828125 680.858398438 l 1
 79.173828125 794.352539062 l 1
 536.228515625 794.352539062 l 1
 470.646484375 680.858398438 l 1
 377.337890625 519.2109375 l 1
 375.87890625 516.69921875 l 1
 466.997070312 484.028320312 535.580078125 404.096679688 552.036132812 306.493164062 c 0
 554.548828125 291.657226562 555.845703125 276.498046875 555.845703125 260.93359375 c 0
EndSplineSet
EndChar

StartChar: four.tabular
Encoding: 65540 -1 29
Width: 600
VWidth: 1000
Flags: HW
LayerCount: 2
Fore
SplineSet
460.51171875 320.112304688 m 1
 591.029296875 320.112304688 l 1
 591.029296875 206.618164062 l 1
 460.51171875 206.618164062 l 1
 460.51171875 -2.533203125 l 1
 347.01953125 -2.533203125 l 1
 347.01953125 206.618164062 l 1
 8.970703125 206.618164062 l 1
 8.970703125 320.112304688 l 1
 344.9921875 800.02734375 l 1
 460.51171875 800.02734375 l 1
 460.51171875 320.112304688 l 1
147.513671875 320.112304688 m 1
 347.01953125 320.112304688 l 1
 347.01953125 605.061523438 l 1
 147.513671875 320.112304688 l 1
EndSplineSet
EndChar

StartChar: five.tabular
Encoding: 65541 -1 30
Width: 600
VWidth: 1000
Flags: HW
LayerCount: 2
Fore
SplineSet
558.602539062 256.879882812 m 0
 558.602539062 241.315429688 557.305664062 226.075195312 554.791992188 211.3203125 c 0
 533.147460938 85.26171875 423.302734375 -10.640625 291.083007812 -10.640625 c 0
 190.96484375 -10.640625 101.38671875 34.3525390625 41.3974609375 105.28515625 c 1
 122.139648438 186.02734375 l 1
 161.051757812 135.442382812 222.256835938 102.853515625 291.083007812 102.853515625 c 0
 376.122070312 102.853515625 445.109375 171.841796875 445.109375 256.879882812 c 0
 445.109375 321.00390625 405.954101562 375.966796875 350.1796875 399.15234375 c 0
 348.153320312 400.043945312 346.045898438 400.772460938 344.018554688 401.583984375 c 0
 326.670898438 408.150390625 308.998046875 413.419921875 291.083007812 417.392578125 c 0
 268.708007812 422.336914062 246.009765625 425.336914062 223.310546875 426.228515625 c 0
 184.3984375 427.930664062 145.405273438 423.715820312 107.709960938 413.825195312 c 1
 107.791015625 414.391601562 l 1
 112.57421875 456.141601562 l 1
 121.248046875 532.912109375 l 1
 139.083007812 688.96484375 l 1
 151.971679688 802.458984375 l 1
 533.470703125 802.458984375 l 1
 533.470703125 688.96484375 l 1
 253.305664062 688.96484375 l 1
 236.200195312 539.396484375 l 1
 284.434570312 536.559570312 333.15625 526.669921875 380.823242188 508.997070312 c 0
 382.606445312 508.349609375 384.471679688 507.700195312 386.254882812 506.970703125 c 0
 389.25390625 505.8359375 392.252929688 504.620117188 395.252929688 503.403320312 c 0
 491.236328125 462.7890625 558.602539062 367.698242188 558.602539062 256.879882812 c 0
EndSplineSet
EndChar

StartChar: six.tabular
Encoding: 65542 -1 31
Width: 600
VWidth: 1000
Flags: HW
LayerCount: 2
Fore
SplineSet
484.895507812 427.954101562 m 0
 585.905273438 329.1328125 587.608398438 167.162109375 488.788085938 66.234375 c 0
 459.279296875 35.9970703125 424.177734375 14.67578125 386.643554688 2.353515625 c 2
 386.5625 2.353515625 l 2
 324.951171875 -18.0751953125 257.098632812 -14.42578125 197.676757812 13.37890625 c 0
 172.22265625 25.21484375 148.307617188 41.58984375 127.067382812 62.3427734375 c 0
 101.694335938 87.1494140625 82.6435546875 115.846679688 69.8349609375 146.65234375 c 0
 69.6728515625 147.057617188 69.509765625 147.381835938 69.4296875 147.706054688 c 0
 68.3759765625 150.219726562 67.40234375 152.651367188 66.5107421875 155.1640625 c 0
 66.349609375 155.245117188 66.349609375 155.407226562 66.4296875 155.489257812 c 0
 65.701171875 157.352539062 64.970703125 159.298828125 64.2412109375 161.245117188 c 0
 64.16015625 161.40625 64.0791015625 161.650390625 64.0791015625 161.811523438 c 0
 45.595703125 213.045898438 36.8408203125 267.5234375 38.380859375 322.243164062 c 0
 39.19140625 348.184570312 42.271484375 374.125976562 47.7841796875 399.82421875 c 0
 47.7841796875 399.985351562 47.8662109375 400.229492188 47.8662109375 400.391601562 c 0
 51.513671875 417.415039062 56.2158203125 434.27734375 62.0517578125 450.895507812 c 0
 112.39453125 607.192382812 219.969726562 737.872070312 360.053710938 818.208984375 c 1
 415.259765625 739.331054688 l 1
 425.393554688 724.819335938 l 1
 323.330078125 668.802734375 241.290039062 580.844726562 192.731445312 474.486328125 c 1
 196.055664062 476.270507812 199.37890625 477.810546875 202.703125 479.1875 c 2
 202.784179688 479.1875 l 2
 246.155273438 498.400390625 293.822265625 504.885742188 340.110351562 498.64453125 c 0
 340.192382812 498.724609375 340.2734375 498.724609375 340.435546875 498.64453125 c 0
 393.047851562 491.509765625 443.958007812 468 484.895507812 427.954101562 c 0
363.702148438 116.333007812 m 0
 434.877929688 148.192382812 466.737304688 231.69140625 434.796875 302.868164062 c 0
 412.422851562 352.885742188 364.59375 383.448242188 313.440429688 386.205078125 c 0
 291.875976562 386.041992188 271.124023438 382.3125 251.829101562 375.422851562 c 0
 210.971679688 361.155273438 176.4375 333.348632812 153.739257812 297.2734375 c 2
 153.739257812 297.193359375 l 2
 154.79296875 268.08984375 159.900390625 239.635742188 168.655273438 212.478515625 c 0
 168.655273438 212.235351562 168.736328125 211.9921875 168.8984375 211.749023438 c 0
 170.762695312 203.561523438 173.600585938 195.373046875 177.166992188 187.4296875 c 0
 178.626953125 184.185546875 180.166992188 180.943359375 181.869140625 177.86328125 c 0
 182.112304688 177.458007812 182.274414062 177.1328125 182.435546875 176.809570312 c 0
 217.538085938 113.171875 296.172851562 86.0146484375 363.702148438 116.333007812 c 0
EndSplineSet
EndChar

StartChar: seven.tabular
Encoding: 65543 -1 32
Width: 600
VWidth: 1000
Flags: HW
LayerCount: 2
Fore
SplineSet
546.84765625 798.405273438 m 1
 546.84765625 675.18359375 l 1
 421.11328125 467.572265625 325.6171875 239.612304688 266.357421875 -2.533203125 c 1
 149.702148438 -2.533203125 l 1
 151.729492188 6.5458984375 153.91796875 15.5439453125 156.107421875 24.54296875 c 0
 213.502929688 259.069335938 303.405273438 480.8671875 420.7890625 684.912109375 c 1
 53.15234375 684.912109375 l 1
 53.15234375 798.405273438 l 1
 546.84765625 798.405273438 l 1
EndSplineSet
EndChar

StartChar: eight.tabular
Encoding: 65544 -1 33
Width: 600
VWidth: 1000
Flags: HW
LayerCount: 2
Fore
SplineSet
490.141601562 412.689453125 m 0
 538.700195312 368.264648438 569.1015625 304.384765625 569.1015625 233.37109375 c 0
 569.1015625 162.03125 538.375976562 97.8271484375 489.411132812 53.4033203125 c 0
 489.411132812 53.3212890625 489.33203125 53.3212890625 489.33203125 53.3212890625 c 2
 481.873046875 46.51171875 473.9296875 40.1884765625 465.66015625 34.3525390625 c 0
 423.504882812 9.5458984375 375.188476562 -6.099609375 323.629882812 -9.7490234375 c 0
 315.848632812 -10.396484375 307.984375 -10.640625 300.040039062 -10.640625 c 2
 299.958984375 -10.640625 l 2
 292.015625 -10.640625 284.3125 -10.396484375 276.53125 -9.7490234375 c 2
 276.368164062 -9.7490234375 l 2
 224.809570312 -6.099609375 176.494140625 9.5458984375 134.33984375 34.3525390625 c 0
 126.071289062 40.1884765625 118.126953125 46.51171875 110.668945312 53.3212890625 c 2
 110.668945312 53.3212890625 110.586914062 53.3212890625 110.586914062 53.4033203125 c 0
 61.623046875 97.8271484375 30.8984375 162.03125 30.8984375 233.37109375 c 0
 30.8984375 304.384765625 61.298828125 368.264648438 109.857421875 412.689453125 c 0
 115.532226562 417.87890625 121.450195312 422.823242188 127.611328125 427.444335938 c 1
 102.723632812 449.737304688 82.86328125 477.705078125 70.0546875 509.241210938 c 2
 70.0546875 509.403320312 l 2
 59.4345703125 535.34375 53.59765625 563.5546875 53.59765625 593.306640625 c 0
 53.59765625 622.815429688 59.3525390625 650.944335938 69.73046875 676.723632812 c 0
 91.375 730.309570312 133.125 773.517578125 185.735351562 796.946289062 c 0
 197.896484375 801.2421875 210.380859375 804.809570312 223.109375 807.646484375 c 0
 243.69921875 812.349609375 264.857421875 815.186523438 286.6640625 815.915039062 c 0
 291.04296875 816.158203125 295.58203125 816.240234375 300.040039062 816.240234375 c 0
 304.254882812 816.240234375 308.390625 816.158203125 312.524414062 815.99609375 c 0
 334.57421875 815.266601562 356.05859375 812.4296875 376.891601562 807.646484375 c 0
 385.403320312 805.783203125 393.8359375 803.512695312 402.184570312 800.999023438 c 0
 460.6328125 778.30078125 507.083984375 731.525390625 529.458984375 672.833007812 c 0
 538.943359375 648.107421875 544.1328125 621.35546875 544.1328125 593.306640625 c 0
 544.1328125 565.095703125 538.943359375 538.342773438 529.296875 513.537109375 c 2
 529.296875 513.375 l 2
 516.731445312 480.624023438 496.626953125 451.520507812 471.090820312 428.416992188 c 1
 477.73828125 423.553710938 484.0625 418.284179688 490.141601562 412.689453125 c 0
192.05859375 662.943359375 m 0
 176.494140625 643.97265625 167.090820312 619.735351562 167.090820312 593.306640625 c 0
 167.090820312 544.422851562 199.03125 503.080078125 243.211914062 489.0546875 c 0
 243.293945312 489.0546875 243.375 488.973632812 243.455078125 488.973632812 c 0
 243.6171875 488.892578125 243.860351562 488.892578125 244.0234375 488.811523438 c 0
 252.29296875 486.78515625 260.641601562 485.245117188 269.235351562 484.19140625 c 0
 269.31640625 484.110351562 269.396484375 484.110351562 269.478515625 484.110351562 c 0
 279.44921875 482.731445312 289.6640625 482.083007812 299.958984375 482.083007812 c 0
 312.6875 482.083007812 325.251953125 483.13671875 337.411132812 485.083007812 c 0
 337.57421875 485.083007812 337.735351562 485.083007812 337.8984375 485.163085938 c 0
 340.086914062 485.48828125 342.356445312 485.893554688 344.546875 486.379882812 c 0
 345.84375 486.624023438 347.220703125 486.865234375 348.517578125 487.271484375 c 0
 395.69921875 499.430664062 430.638671875 542.315429688 430.638671875 593.306640625 c 0
 430.638671875 619.004882812 421.801757812 642.594726562 406.966796875 661.241210938 c 0
 396.751953125 674.048828125 383.782226562 684.587890625 368.947265625 691.802734375 c 0
 366.595703125 692.61328125 364.244140625 693.504882812 361.8125 694.396484375 c 0
 346.0859375 698.774414062 329.62890625 701.530273438 312.6875 702.340820312 c 0
 312.60546875 702.422851562 312.524414062 702.422851562 312.443359375 702.340820312 c 0
 308.390625 702.665039062 304.17578125 702.747070312 300.040039062 702.747070312 c 0
 295.5 702.747070312 290.9609375 702.583984375 286.501953125 702.260742188 c 0
 286.421875 702.340820312 286.33984375 702.340820312 286.258789062 702.260742188 c 0
 277.828125 701.85546875 266.31640625 699.828125 255.77734375 697.720703125 c 0
 233.890625 693.26171875 213.298828125 683.534179688 197.0859375 668.211914062 c 0
 195.140625 666.428710938 193.4375 664.645507812 192.05859375 662.943359375 c 0
441.825195312 175.165039062 m 0
 450.662109375 192.59375 455.606445312 212.374023438 455.606445312 233.37109375 c 0
 455.606445312 272.525390625 438.177734375 307.708984375 410.696289062 331.54296875 c 0
 403.318359375 336.244140625 396.0234375 340.784179688 388.56640625 345.485351562 c 0
 369.109375 354.403320312 348.03125 360.40234375 325.900390625 363.077148438 c 2
 325.8203125 363.077148438 l 2
 317.388671875 364.211914062 308.796875 364.69921875 300.040039062 364.69921875 c 2
 299.958984375 364.69921875 l 2
 291.204101562 364.69921875 282.610351562 364.211914062 274.1796875 363.077148438 c 2
 274.098632812 363.077148438 l 2
 251.966796875 360.40234375 230.890625 354.403320312 211.434570312 345.485351562 c 0
 203.9765625 340.784179688 196.6796875 336.244140625 189.302734375 331.54296875 c 0
 161.821289062 307.708984375 144.391601562 272.525390625 144.391601562 233.37109375 c 0
 144.391601562 212.374023438 149.336914062 192.59375 158.172851562 175.165039062 c 0
 173.169921875 145.413085938 200.814453125 124.498046875 232.4296875 113.87890625 c 0
 247.671875 108.771484375 263.8046875 105.28515625 280.259765625 103.826171875 c 2
 280.74609375 103.826171875 l 2
 287.0703125 103.176757812 293.473632812 102.853515625 299.958984375 102.853515625 c 2
 300.040039062 102.853515625 l 2
 306.525390625 102.853515625 312.9296875 103.176757812 319.25390625 103.826171875 c 2
 319.739257812 103.826171875 l 2
 336.1953125 105.28515625 352.329101562 108.771484375 367.568359375 113.87890625 c 0
 399.184570312 124.498046875 426.828125 145.413085938 441.825195312 175.165039062 c 0
EndSplineSet
EndChar

StartChar: nine.tabular
Encoding: 65545 -1 34
Width: 600
VWidth: 1000
Flags: HW
LayerCount: 2
Fore
SplineSet
562.818359375 519.373046875 m 4
 563.223632812 512.239257812 563.466796875 505.10546875 563.466796875 497.890625 c 4
 563.466796875 451.439453125 554.629882812 407.014648438 538.579101562 366.239257812 c 4
 538.579101562 366.157226562 538.579101562 365.99609375 538.498046875 365.833007812 c 4
 493.668945312 207.99609375 391.200195312 74.3984375 255.33203125 -10.640625 c 5
 160.890625 65.8056640625 l 5
 201.990234375 87.4501953125 240.010742188 114.364257812 273.977539062 145.494140625 c 4
 329.184570312 196.161132812 373.932617188 258.095703125 404.4140625 327.732421875 c 5
 391.848632812 321.571289062 378.715820312 316.3828125 365.096679688 312.329101562 c 4
 341.912109375 305.438476562 317.34765625 301.708984375 291.893554688 301.708984375 c 4
 150.837890625 301.708984375 36.533203125 416.013671875 36.533203125 557.069335938 c 4
 36.533203125 617.3828125 57.3671875 672.833007812 92.3076171875 716.446289062 c 4
 139.1640625 774.9765625 211.151367188 812.4296875 291.893554688 812.4296875 c 4
 326.751953125 812.4296875 359.989257812 805.458007812 390.30859375 792.811523438 c 4
 418.357421875 781.138671875 443.8125 764.599609375 465.700195312 744.252929688 c 4
 493.830078125 718.068359375 516.04296875 685.641601562 530.1484375 649.161132812 c 4
 548.712890625 609.357421875 560.143554688 565.5 562.818359375 519.373046875 c 4
347.26171875 426.470703125 m 6
 390.146484375 441.873046875 426.059570312 471.94921875 448.756835938 510.780273438 c 4
 449.000976562 511.186523438 449.243164062 511.672851562 449.487304688 512.078125 c 6
 449.487304688 512.158203125 l 6
 449.487304688 513.780273438 449.405273438 515.3203125 449.163085938 516.942382812 c 6
 449.163085938 517.103515625 l 6
 446.811523438 548.314453125 438.543945312 577.985351562 425.491210938 604.817382812 c 4
 415.196289062 626.137695312 401.901367188 645.674804688 386.092773438 663.0234375 c 6
 385.930664062 663.186523438 l 6
 360.880859375 685.479492188 327.967773438 698.936523438 291.893554688 698.936523438 c 4
 213.583007812 698.936523438 150.026367188 635.379882812 150.026367188 557.069335938 c 4
 150.026367188 480.461914062 210.826171875 417.958984375 286.786132812 415.284179688 c 4
 307.944335938 415.770507812 328.2109375 419.661132812 347.099609375 426.390625 c 4
 347.181640625 426.390625 347.26171875 426.470703125 347.26171875 426.470703125 c 6
EndSplineSet
EndChar

StartChar: less
Encoding: 60 60 35
Width: 577
VWidth: 1000
Flags: HW
LayerCount: 2
Fore
SplineSet
49.658203125 339.575195312 m 5
 527.341796875 561.243164062 l 5
 527.341796875 450.409179688 l 5
 167.204101562 283.288085938 l 5
 527.341796875 110.833984375 l 5
 527.341796875 0 l 5
 49.658203125 228.741210938 l 5
 49.658203125 339.575195312 l 5
 49.658203125 339.575195312 l 5
EndSplineSet
EndChar

StartChar: greater
Encoding: 62 62 36
Width: 577
VWidth: 1000
Flags: HW
LayerCount: 2
Fore
SplineSet
527.341796875 339.575195312 m 5
 49.658203125 561.243164062 l 5
 49.658203125 450.409179688 l 5
 409.795898438 283.288085938 l 5
 49.658203125 110.833984375 l 5
 49.658203125 0 l 5
 527.341796875 228.741210938 l 5
 527.341796875 339.575195312 l 5
 527.341796875 339.575195312 l 5
EndSplineSet
EndChar

StartChar: parenleft
Encoding: 40 40 37
Width: 365
VWidth: 1000
Flags: HW
LayerCount: 2
Fore
SplineSet
292.541992188 -6.4912109375 m 1
 281.854492188 -5.541015625 271.247070312 -3.87890625 260.954101562 -1.50390625 c 0
 195.879882812 13.4580078125 140.779296875 54.7041015625 107.608398438 110.516601562 c 2
 107.529296875 110.595703125 l 2
 100.958007812 121.599609375 95.2587890625 133.158203125 90.5087890625 145.19140625 c 0
 90.455078125 145.244140625 90.4296875 145.296875 90.4296875 145.349609375 c 0
 87.6591796875 152.396484375 85.2041015625 159.599609375 83.0673828125 166.8828125 c 0
 82.98828125 167.200195312 82.908203125 167.516601562 82.8291015625 167.754882812 c 0
 67.6298828125 209.870117188 58.2880859375 254.758789062 55.5166015625 301.387695312 c 0
 51.7958984375 332.420898438 49.8955078125 364.087890625 49.8955078125 396.150390625 c 0
 49.8955078125 470.645507812 60.1884765625 542.766601562 79.42578125 611.166015625 c 0
 82.1962890625 623.4375 85.8369140625 635.391601562 90.4296875 646.950195312 c 0
 90.4296875 647.002929688 90.455078125 647.055664062 90.5087890625 647.108398438 c 0
 98.1875 666.583007812 108.400390625 684.870117188 120.670898438 701.49609375 c 0
 150.913085938 742.662109375 193.900390625 773.775390625 243.775390625 789.212890625 c 0
 259.44921875 794.041015625 275.758789062 797.287109375 292.541992188 798.791015625 c 1
 315.104492188 689.06640625 l 1
 289.850585938 689.06640625 266.258789062 681.862304688 246.229492188 669.43359375 c 0
 223.508789062 655.341796875 205.458984375 634.362304688 194.850585938 609.50390625 c 0
 194.770507812 609.424804688 194.770507812 609.345703125 194.770507812 609.266601562 c 0
 192.079101562 601.192382812 189.545898438 593.037109375 187.171875 584.803710938 c 0
 187.171875 584.646484375 187.091796875 584.56640625 187.091796875 584.408203125 c 0
 171.970703125 531.841796875 163.104492188 476.741210938 161.204101562 419.821289062 c 0
 160.887695312 411.983398438 160.729492188 404.06640625 160.729492188 396.150390625 c 0
 160.729492188 388.233398438 160.887695312 380.31640625 161.204101562 372.478515625 c 0
 161.837890625 351.895507812 163.421875 331.62890625 165.954101562 311.599609375 c 2
 165.954101562 311.283203125 l 2
 170.38671875 275.896484375 177.43359375 241.37890625 187.091796875 207.891601562 c 0
 187.091796875 207.733398438 187.171875 207.654296875 187.171875 207.49609375 c 0
 188.438476562 203.220703125 189.704101562 199.025390625 190.970703125 194.829101562 c 0
 195.008789062 184.458984375 199.521484375 174.325195312 204.508789062 164.428710938 c 0
 204.508789062 164.349609375 204.586914062 164.19140625 204.666992188 164.112304688 c 0
 227.783203125 127.537109375 268.633789062 103.233398438 315.104492188 103.233398438 c 1
 292.541992188 -6.4912109375 l 1
EndSplineSet
EndChar

StartChar: parenright
Encoding: 41 41 38
Width: 365
VWidth: 1000
Flags: HW
LayerCount: 2
Fore
SplineSet
72.4580078125 -6.4912109375 m 1
 83.1455078125 -5.541015625 93.7529296875 -3.87890625 104.045898438 -1.50390625 c 0
 169.120117188 13.4580078125 224.220703125 54.7041015625 257.391601562 110.516601562 c 2
 257.470703125 110.595703125 l 2
 264.041992188 121.599609375 269.741210938 133.158203125 274.491210938 145.19140625 c 0
 274.544921875 145.244140625 274.5703125 145.296875 274.5703125 145.349609375 c 0
 277.340820312 152.396484375 279.795898438 159.599609375 281.932617188 166.8828125 c 0
 282.01171875 167.200195312 282.091796875 167.516601562 282.170898438 167.754882812 c 0
 297.370117188 209.870117188 306.711914062 254.758789062 309.483398438 301.387695312 c 0
 313.204101562 332.420898438 315.104492188 364.087890625 315.104492188 396.150390625 c 0
 315.104492188 470.645507812 304.811523438 542.766601562 285.57421875 611.166015625 c 0
 282.803710938 623.4375 279.163085938 635.391601562 274.5703125 646.950195312 c 0
 274.5703125 647.002929688 274.544921875 647.055664062 274.491210938 647.108398438 c 0
 266.8125 666.583007812 256.599609375 684.870117188 244.329101562 701.49609375 c 0
 214.086914062 742.662109375 171.099609375 773.775390625 121.224609375 789.212890625 c 0
 105.55078125 794.041015625 89.2412109375 797.287109375 72.4580078125 798.791015625 c 1
 49.8955078125 689.06640625 l 1
 75.1494140625 689.06640625 98.7412109375 681.862304688 118.770507812 669.43359375 c 0
 141.491210938 655.341796875 159.541015625 634.362304688 170.149414062 609.50390625 c 0
 170.229492188 609.424804688 170.229492188 609.345703125 170.229492188 609.266601562 c 0
 172.920898438 601.192382812 175.454101562 593.037109375 177.828125 584.803710938 c 0
 177.828125 584.646484375 177.908203125 584.56640625 177.908203125 584.408203125 c 0
 193.029296875 531.841796875 201.895507812 476.741210938 203.795898438 419.821289062 c 0
 204.112304688 411.983398438 204.270507812 404.06640625 204.270507812 396.150390625 c 0
 204.270507812 388.233398438 204.112304688 380.31640625 203.795898438 372.478515625 c 0
 203.162109375 351.895507812 201.578125 331.62890625 199.045898438 311.599609375 c 2
 199.045898438 311.283203125 l 2
 194.61328125 275.896484375 187.56640625 241.37890625 177.908203125 207.891601562 c 0
 177.908203125 207.733398438 177.828125 207.654296875 177.828125 207.49609375 c 0
 176.561523438 203.220703125 175.295898438 199.025390625 174.029296875 194.829101562 c 0
 169.991210938 184.458984375 165.478515625 174.325195312 160.491210938 164.428710938 c 0
 160.491210938 164.349609375 160.413085938 164.19140625 160.333007812 164.112304688 c 0
 137.216796875 127.537109375 96.3662109375 103.233398438 49.8955078125 103.233398438 c 1
 72.4580078125 -6.4912109375 l 1
EndSplineSet
EndChar

StartChar: bracketleft
Encoding: 91 91 39
Width: 310
VWidth: 1000
Flags: HW
LayerCount: 2
Fore
SplineSet
160.625 677.19140625 m 1
 160.625 111.150390625 l 1
 260.208984375 111.150390625 l 1
 260.208984375 0.31640625 l 1
 49.791015625 0.31640625 l 1
 49.791015625 111.150390625 l 1
 49.791015625 677.19140625 l 1
 49.791015625 788.025390625 l 1
 260.208984375 788.025390625 l 1
 260.208984375 677.19140625 l 1
 160.625 677.19140625 l 1
EndSplineSet
EndChar

StartChar: bracketright
Encoding: 93 93 40
Width: 310
VWidth: 1000
Flags: HW
LayerCount: 2
Fore
SplineSet
149.375 677.19140625 m 1
 149.375 111.150390625 l 1
 49.791015625 111.150390625 l 1
 49.791015625 0.31640625 l 1
 260.208984375 0.31640625 l 1
 260.208984375 111.150390625 l 1
 260.208984375 677.19140625 l 1
 260.208984375 788.025390625 l 1
 49.791015625 788.025390625 l 1
 49.791015625 677.19140625 l 1
 149.375 677.19140625 l 1
EndSplineSet
EndChar

StartChar: percent
Encoding: 37 37 41
Width: 919
VWidth: 1000
Flags: HW
LayerCount: 2
Fore
SplineSet
128.37109375 0 m 1
 50 78.37109375 l 1
 790.62890625 819 l 1
 869 740.627929688 l 1
 128.37109375 0 l 1
172.19140625 638 m 0
 172.19140625 599 203.390625 567.41015625 242 567.41015625 c 0
 280.611328125 567.41015625 311.810546875 599 311.810546875 638 c 0
 311.810546875 677 280.611328125 708.58984375 242 708.58984375 c 0
 203.390625 708.58984375 172.19140625 677 172.19140625 638 c 0
63 638 m 0
 63 738 143 819 242 819 c 0
 341 819 421 738 421 638 c 0
 421 538 341 457 242 457 c 0
 143 457 63 538 63 638 c 0
599.19140625 174 m 0
 599.19140625 135 630.390625 103.41015625 669 103.41015625 c 0
 707.611328125 103.41015625 738.810546875 135 738.810546875 174 c 0
 738.810546875 213 707.611328125 244.58984375 669 244.58984375 c 0
 630.390625 244.58984375 599.19140625 213 599.19140625 174 c 0
490 174 m 0
 490 274 570 355 669 355 c 0
 768 355 848 274 848 174 c 0
 848 74 768 -7 669 -7 c 0
 570 -7 490 74 490 174 c 0
EndSplineSet
EndChar

StartChar: asterisk
Encoding: 42 42 42
Width: 583
VWidth: 1000
Flags: HW
LayerCount: 2
Fore
SplineSet
236.083007812 819 m 1
 346.916992188 819 l 1
 346.916992188 722.806640625 l 1
 490.954101562 782.46875 l 1
 533.368164062 680.071289062 l 1
 436.311523438 639.869140625 l 1
 533.368164062 599.666992188 l 1
 490.954101562 497.26953125 l 1
 346.916992188 556.931640625 l 1
 346.916992188 460.73828125 l 1
 236.083007812 460.73828125 l 1
 236.083007812 556.931640625 l 1
 92.0458984375 497.26953125 l 1
 49.6318359375 599.666992188 l 1
 146.688476562 639.869140625 l 1
 49.6318359375 680.071289062 l 1
 92.0458984375 782.46875 l 1
 236.083007812 722.806640625 l 1
 236.083007812 819 l 1
EndSplineSet
EndChar

StartChar: asciicircum
Encoding: 94 94 43
Width: 471
VWidth: 1000
Flags: HW
LayerCount: 2
Fore
SplineSet
313.872070312 819 m 1
 421.165039062 711.70703125 l 1
 342.79296875 633.334960938 l 1
 235.5 740.627929688 l 1
 128.20703125 633.334960938 l 1
 49.8349609375 711.70703125 l 1
 157.127929688 819 l 1
 313.872070312 819 l 1
EndSplineSet
EndChar

StartChar: grave
Encoding: 96 96 44
Width: 302
VWidth: 1000
Flags: HW
LayerCount: 2
Fore
SplineSet
118.735351562 652 m 5
 49.5615234375 819 l 1
 169.52734375 819 l 1
 252.438476562 618.833984375 l 5
 118.735351562 652 l 5
EndSplineSet
EndChar

StartChar: bar
Encoding: 124 124 45
Width: 210
VWidth: 1000
Flags: HW
LayerCount: 2
Fore
SplineSet
160.416992188 -96 m 5
 49.5830078125 -96 l 5
 49.5830078125 788.025390625 l 5
 160.416992188 788.025390625 l 5
 160.416992188 -96 l 5
EndSplineSet
EndChar

